<svg width="18" height="18" viewBox="0 0 17 16" fill="none" xmlns="http://www.w3.org/2000/svg">
<path d="M10.1665 4.66661C9.54545 4.65695 8.94595 4.89435 8.49987 5.32661C8.15691 5.00635 7.72687 4.79472 7.26388 4.71835C6.8009 4.64199 6.32567 4.7043 5.89803 4.89745C5.47039 5.09061 5.10945 5.40596 4.86065 5.80381C4.61186 6.20166 4.48633 6.66423 4.49987 7.13328C4.49987 9.30394 7.7492 11.6239 8.11987 11.8806C8.23147 11.958 8.36405 11.9995 8.49987 11.9995C8.63569 11.9995 8.76827 11.958 8.87987 11.8806C9.25054 11.6239 12.4999 9.30394 12.4999 7.13328C12.5164 6.49708 12.2801 5.88027 11.8427 5.41794C11.4054 4.95561 10.8027 4.68544 10.1665 4.66661ZM8.49987 10.5079C7.3392 9.62127 5.8332 8.13461 5.8332 7.13328C5.78254 5.79594 7.7752 5.53328 7.8332 6.96928V7.33328C7.8332 7.51009 7.90344 7.67966 8.02846 7.80468C8.15349 7.9297 8.32306 7.99994 8.49987 7.99994C8.67668 7.99994 8.84625 7.9297 8.97127 7.80468C9.0963 7.67966 9.16654 7.51009 9.16654 7.33328V6.96928C9.22454 5.53461 11.2172 5.79594 11.1665 7.13328C11.1665 8.13328 9.66054 9.62127 8.49987 10.5079ZM9.0572 0.0186075C7.91436 -0.0612538 6.76769 0.105275 5.69477 0.506929C4.62185 0.908582 3.64771 1.53599 2.83826 2.34671C2.02881 3.15743 1.40292 4.13254 1.00294 5.20608C0.602964 6.27963 0.438224 7.42655 0.519869 8.56927C0.813202 12.8053 4.55454 15.9999 9.22187 15.9999H13.1665C14.0503 15.9989 14.8975 15.6474 15.5224 15.0225C16.1473 14.3976 16.4988 13.5503 16.4999 12.6666V8.22661C16.5246 6.17162 15.7711 4.18333 14.3906 2.66089C13.0101 1.13844 11.1048 0.194518 9.0572 0.0186075ZM15.1665 12.6666C15.1665 13.197 14.9558 13.7058 14.5807 14.0808C14.2057 14.4559 13.697 14.6666 13.1665 14.6666H9.22187C5.1992 14.6666 2.09987 12.0666 1.84987 8.47727C1.78143 7.52461 1.91849 6.56836 2.25177 5.67328C2.58505 4.77819 3.10677 3.96517 3.7816 3.28926C4.45644 2.61335 5.26863 2.09034 6.16318 1.75563C7.05773 1.42093 8.01376 1.28235 8.96654 1.34927C10.6775 1.50063 12.2678 2.29388 13.4179 3.56964C14.568 4.84541 15.1928 6.50915 15.1665 8.22661V12.6666Z" fill="white"/>
</svg>
