<svg width="18" height="18" viewBox="0 0 15 16" fill="none" xmlns="http://www.w3.org/2000/svg">
<path d="M10.8334 9.33332C10.8334 9.51013 10.7632 9.6797 10.6382 9.80472C10.5131 9.92975 10.3436 9.99998 10.1668 9.99998H4.83344C4.65662 9.99998 4.48706 9.92975 4.36203 9.80472C4.23701 9.6797 4.16677 9.51013 4.16677 9.33332C4.16677 9.15651 4.23701 8.98694 4.36203 8.86191C4.48706 8.73689 4.65662 8.66665 4.83344 8.66665H10.1668C10.3436 8.66665 10.5131 8.73689 10.6382 8.86191C10.7632 8.98694 10.8334 9.15651 10.8334 9.33332ZM8.16677 11.3333H4.83344C4.65662 11.3333 4.48706 11.4036 4.36203 11.5286C4.23701 11.6536 4.16677 11.8232 4.16677 12C4.16677 12.1768 4.23701 12.3464 4.36203 12.4714C4.48706 12.5964 4.65662 12.6667 4.83344 12.6667H8.16677C8.34358 12.6667 8.51315 12.5964 8.63817 12.4714C8.7632 12.3464 8.83344 12.1768 8.83344 12C8.83344 11.8232 8.7632 11.6536 8.63817 11.5286C8.51315 11.4036 8.34358 11.3333 8.16677 11.3333ZM14.1668 6.98998V12.6667C14.1657 13.5504 13.8142 14.3976 13.1893 15.0225C12.5644 15.6474 11.7172 15.9989 10.8334 16H4.16677C3.28304 15.9989 2.43581 15.6474 1.81091 15.0225C1.18602 14.3976 0.834494 13.5504 0.833435 12.6667V3.33332C0.834494 2.44959 1.18602 1.60236 1.81091 0.977465C2.43581 0.352573 3.28304 0.00104342 4.16677 -1.51518e-05H7.17677C7.78985 -0.0015931 8.39716 0.118377 8.96358 0.352958C9.53001 0.587539 10.0443 0.932077 10.4768 1.36665L12.7994 3.69065C13.2343 4.12281 13.579 4.63696 13.8137 5.2033C14.0484 5.76965 14.1684 6.37693 14.1668 6.98998ZM9.5341 2.30932C9.32429 2.10609 9.08872 1.93127 8.83344 1.78932V4.66665C8.83344 4.84346 8.90367 5.01303 9.0287 5.13806C9.15372 5.26308 9.32329 5.33332 9.5001 5.33332H12.3774C12.2354 5.07811 12.0603 4.84275 11.8568 4.63332L9.5341 2.30932ZM12.8334 6.98998C12.8334 6.87998 12.8121 6.77465 12.8021 6.66665H9.5001C8.96967 6.66665 8.46096 6.45594 8.08589 6.08087C7.71082 5.70579 7.5001 5.19708 7.5001 4.66665V1.36465C7.3921 1.35465 7.2861 1.33332 7.17677 1.33332H4.16677C3.63634 1.33332 3.12763 1.54403 2.75255 1.9191C2.37748 2.29418 2.16677 2.80289 2.16677 3.33332V12.6667C2.16677 13.1971 2.37748 13.7058 2.75255 14.0809C3.12763 14.4559 3.63634 14.6667 4.16677 14.6667H10.8334C11.3639 14.6667 11.8726 14.4559 12.2476 14.0809C12.6227 13.7058 12.8334 13.1971 12.8334 12.6667V6.98998Z" fill="white"/>
</svg>
