<svg width="18" height="18" viewBox="0 0 17 16" fill="none" xmlns="http://www.w3.org/2000/svg">
<path d="M16.1901 9.81699C16.052 9.64931 15.8749 9.51809 15.6743 9.43486C15.4736 9.35163 15.2556 9.31894 15.0394 9.33965C13.8779 9.43148 12.7504 9.77609 11.736 10.3493C10.7215 10.9226 9.84468 11.7106 9.16675 12.6583V9.27365C10.0978 9.11547 10.9429 8.6333 11.5529 7.91234C12.1628 7.19138 12.4983 6.27802 12.5001 5.33365C12.5001 3.47165 11.2048 1.89899 9.93742 0.60632C9.55318 0.230884 9.0373 0.0206909 8.50009 0.0206909C7.96288 0.0206909 7.44699 0.230884 7.06275 0.60632C5.79542 1.89899 4.50009 3.47165 4.50009 5.33365C4.50184 6.27802 4.83733 7.19138 5.44729 7.91234C6.05724 8.6333 6.90239 9.11547 7.83342 9.27365V12.6583C7.1555 11.7106 6.27863 10.9226 5.2642 10.3493C4.24978 9.77609 3.12232 9.43148 1.96075 9.33965C1.74455 9.31906 1.52659 9.35181 1.32598 9.43503C1.12537 9.51824 0.94823 9.6494 0.810087 9.81699C0.672829 9.97995 0.57726 10.1739 0.531617 10.382C0.485974 10.5901 0.491626 10.8062 0.548087 11.0117C1.90742 15.9037 8.22742 16.0003 8.49609 16.0003H8.50409C8.77075 16.0003 15.0934 15.9037 16.4528 11.0117C16.5089 10.8061 16.5143 10.5901 16.4686 10.382C16.4228 10.1739 16.3273 9.98001 16.1901 9.81699ZM5.83342 5.33365C5.83342 3.56432 8.04542 1.52099 8.05875 1.50965C7.81542 2.13365 6.29542 5.93365 7.83342 6.00032C8.01023 6.00032 8.1798 5.93008 8.30482 5.80506C8.42985 5.68003 8.50009 5.51046 8.50009 5.33365C8.55041 4.14794 8.83523 2.98396 9.33809 1.90899C10.2921 2.92899 11.1668 4.10299 11.1668 5.33365C11.1668 6.0409 10.8858 6.71917 10.3857 7.21927C9.88561 7.71937 9.20733 8.00032 8.50009 8.00032C7.79284 8.00032 7.11457 7.71937 6.61447 7.21927C6.11437 6.71917 5.83342 6.0409 5.83342 5.33365ZM1.83742 10.667C3.03858 10.7643 4.19276 11.1769 5.18332 11.8633C6.17388 12.5496 6.9657 13.4852 7.47875 14.5757C5.81409 14.345 2.63342 13.5337 1.83742 10.667ZM9.53009 14.5743C10.0473 13.487 10.8394 12.5534 11.8279 11.8659C12.8165 11.1784 13.9674 10.7608 15.1668 10.6543C14.3708 13.5223 11.1974 14.341 9.53009 14.5743Z" fill="white"/>
</svg>
