<svg width="18" height="18" viewBox="0 0 17 16" fill="none" xmlns="http://www.w3.org/2000/svg">
<path d="M12.4999 6.04249C12.5 5.77433 12.4471 5.5088 12.3441 5.2612C12.2411 5.01361 12.0902 4.78883 11.8999 4.59982C11.5107 4.22839 10.9933 4.02116 10.4553 4.02116C9.91723 4.02116 9.39986 4.22839 9.0106 4.59982L1.09993 12.5125C0.738881 12.8996 0.542229 13.4118 0.551426 13.9411C0.560622 14.4704 0.774948 14.9755 1.14923 15.3499C1.52352 15.7242 2.02853 15.9387 2.55783 15.948C3.08713 15.9573 3.59937 15.7608 3.9866 15.3998L11.8999 7.48716C12.0905 7.29796 12.2416 7.07287 12.3446 6.8249C12.4476 6.57693 12.5004 6.311 12.4999 6.04249ZM3.04393 14.4585C2.90917 14.587 2.73012 14.6586 2.54393 14.6586C2.35775 14.6586 2.1787 14.587 2.04393 14.4585C1.91154 14.3258 1.8372 14.146 1.8372 13.9585C1.8372 13.771 1.91154 13.5912 2.04393 13.4585L7.22327 8.27849L8.2266 9.28183L3.04393 14.4585ZM10.9586 6.54382L9.1666 8.33649L8.1666 7.33316L9.95927 5.54116C10.0232 5.46815 10.1014 5.40905 10.1891 5.36751C10.2767 5.32597 10.372 5.30287 10.469 5.29965C10.566 5.29643 10.6626 5.31316 10.7528 5.3488C10.843 5.38443 10.925 5.43822 10.9936 5.50683C11.0622 5.57543 11.116 5.65739 11.1516 5.74763C11.1873 5.83787 11.204 5.93447 11.2008 6.03144C11.1976 6.12841 11.1745 6.22368 11.1329 6.31136C11.0914 6.39904 11.0323 6.47725 10.9593 6.54116L10.9586 6.54382ZM3.74193 1.90316L4.77527 1.60849L5.06993 0.575158C5.1174 0.409348 5.21757 0.263503 5.35529 0.159678C5.49301 0.0558534 5.6608 -0.000305176 5.83327 -0.000305176C6.00574 -0.000305176 6.17352 0.0558534 6.31124 0.159678C6.44896 0.263503 6.54913 0.409348 6.5966 0.575158L6.89127 1.60849L7.9246 1.90316C8.09041 1.95063 8.23626 2.0508 8.34008 2.18852C8.44391 2.32624 8.50006 2.49402 8.50006 2.66649C8.50006 2.83896 8.44391 3.00675 8.34008 3.14447C8.23626 3.28219 8.09041 3.38235 7.9246 3.42982L6.89127 3.72449L6.5966 4.75782C6.54913 4.92364 6.44896 5.06948 6.31124 5.1733C6.17352 5.27713 6.00574 5.33329 5.83327 5.33329C5.6608 5.33329 5.49301 5.27713 5.35529 5.1733C5.21757 5.06948 5.1174 4.92364 5.06993 4.75782L4.77527 3.72449L3.74193 3.42982C3.57612 3.38235 3.43028 3.28219 3.32645 3.14447C3.22263 3.00675 3.16647 2.83896 3.16647 2.66649C3.16647 2.49402 3.22263 2.32624 3.32645 2.18852C3.43028 2.0508 3.57612 1.95063 3.74193 1.90316ZM15.9246 11.4298L14.8913 11.7245L14.5966 12.7578C14.5491 12.9236 14.449 13.0695 14.3112 13.1733C14.1735 13.2771 14.0057 13.3333 13.8333 13.3333C13.6608 13.3333 13.493 13.2771 13.3553 13.1733C13.2176 13.0695 13.1174 12.9236 13.0699 12.7578L12.7753 11.7245L11.7419 11.4298C11.5761 11.3824 11.4303 11.2822 11.3265 11.1445C11.2226 11.0067 11.1665 10.839 11.1665 10.6665C11.1665 10.494 11.2226 10.3262 11.3265 10.1885C11.4303 10.0508 11.5761 9.95063 11.7419 9.90316L12.7753 9.60849L13.0699 8.57516C13.1174 8.40935 13.2176 8.2635 13.3553 8.15968C13.493 8.05585 13.6608 7.99969 13.8333 7.99969C14.0057 7.99969 14.1735 8.05585 14.3112 8.15968C14.449 8.2635 14.5491 8.40935 14.5966 8.57516L14.8913 9.60849L15.9246 9.90316C16.0904 9.95063 16.2363 10.0508 16.3401 10.1885C16.4439 10.3262 16.5001 10.494 16.5001 10.6665C16.5001 10.839 16.4439 11.0067 16.3401 11.1445C16.2363 11.2822 16.0904 11.3824 15.9246 11.4298ZM12.3366 1.66649L13.2406 1.40849L13.4999 0.503158C13.5421 0.359036 13.6299 0.232473 13.7501 0.142433C13.8703 0.0523942 14.0164 0.00372822 14.1666 0.00372822C14.3168 0.00372822 14.4629 0.0523942 14.5831 0.142433C14.7033 0.232473 14.7911 0.359036 14.8333 0.503158L15.0913 1.40716L15.9953 1.66516C16.1394 1.70737 16.266 1.79514 16.356 1.91533C16.446 2.03552 16.4947 2.18165 16.4947 2.33182C16.4947 2.482 16.446 2.62813 16.356 2.74832C16.266 2.86851 16.1394 2.95628 15.9953 2.99849L15.0913 3.25649L14.8333 4.16249C14.7911 4.30661 14.7033 4.43318 14.5831 4.52322C14.4629 4.61326 14.3168 4.66192 14.1666 4.66192C14.0164 4.66192 13.8703 4.61326 13.7501 4.52322C13.6299 4.43318 13.5421 4.30661 13.4999 4.16249L13.2419 3.25916L12.3366 2.99982C12.1925 2.95762 12.0659 2.86984 11.9759 2.74965C11.8858 2.62946 11.8372 2.48333 11.8372 2.33316C11.8372 2.18298 11.8858 2.03685 11.9759 1.91666C12.0659 1.79647 12.1925 1.7087 12.3366 1.66649Z" fill="white"/>
</svg>
